<?xml version="1.0" encoding="utf-8"?>
<svg xmlns="http://www.w3.org/2000/svg" width="44" height="44" viewBox="0 0 44 44" fill="none">
  <g clip-path="url(#clip0_456_2210)">
    <path d="M22 0C9.84844 0 0 9.84844 0 22C0 34.1516 9.84844 44 22 44C34.1516 44 44 34.1516 44 22C44 9.84844 34.1516 0 22 0ZM35.7328 35.7242C33.9453 37.5117 31.8742 38.9125 29.5625 39.8836C27.1734 40.8977 24.6297 41.4047 22 41.4047C19.3789 41.4047 16.8352 40.8891 14.4375 39.8836C12.1258 38.9039 10.0461 37.5031 8.26719 35.7242C6.47969 33.9367 5.07891 31.8656 4.10781 29.5539C3.09375 27.1648 2.57812 24.6211 2.57812 22C2.57812 19.3789 3.09375 16.8352 4.09922 14.4375C5.07891 12.1258 6.47969 10.0461 8.25859 8.26719C10.0547 6.47969 12.1258 5.07891 14.4375 4.09922C16.8352 3.09375 19.3789 2.57812 22 2.57812C24.6211 2.57812 27.1648 3.09375 29.5625 4.09922C31.8742 5.07891 33.9539 6.47969 35.7328 8.25859C37.5203 10.0461 38.9211 12.1172 39.8922 14.4289C40.9062 16.818 41.4133 19.3617 41.4133 21.9914C41.4133 24.6125 40.8977 27.1562 39.8922 29.5539C38.9125 31.8656 37.5117 33.9453 35.7328 35.7242Z" fill="white"/>
    <path d="M32.7962 24.4399V32.4227H28.1689V24.9733C28.1689 23.1033 27.4995 21.8272 25.824 21.8272C24.5457 21.8272 23.7835 22.6866 23.4488 23.5201C23.3279 23.8181 23.2955 24.2326 23.2955 24.6472V32.4227H18.666C18.666 32.4227 18.7286 19.8083 18.666 18.502H23.2955V20.4734L23.2652 20.5187H23.2955V20.4734C23.9109 19.5233 25.0078 18.1737 27.4671 18.1737C30.5117 18.1737 32.7962 20.1646 32.7962 24.4399ZM13.8228 11.7888C12.2401 11.7888 11.2036 12.8296 11.2036 14.1942C11.2036 15.533 12.2098 16.6018 13.7623 16.6018H13.7926C15.4077 16.6018 16.4117 15.5308 16.4117 14.1942C16.3815 12.8296 15.4077 11.7888 13.8228 11.7888ZM11.4778 32.4227H16.1073V18.502H11.4778V32.4227Z" fill="white"/>
  </g>
  <defs>
    <clipPath id="clip0_456_2210">
      <rect width="44" height="44" fill="white"/>
    </clipPath>
  </defs>
</svg>