<svg width="44" height="44" viewBox="0 0 44 44" fill="none" xmlns="http://www.w3.org/2000/svg">
  <g clip-path="url(#clip0_456_2214)">
  <path d="M22 0C9.84844 0 0 9.84844 0 22C0 34.1516 9.84844 44 22 44C34.1516 44 44 34.1516 44 22C44 9.84844 34.1516 0 22 0ZM35.7328 35.7242C33.9453 37.5117 31.8742 38.9125 29.5625 39.8836C27.1734 40.8977 24.6297 41.4047 22 41.4047C19.3789 41.4047 16.8352 40.8891 14.4375 39.8836C12.1258 38.9039 10.0461 37.5031 8.26719 35.7242C6.47969 33.9367 5.07891 31.8656 4.10781 29.5539C3.09375 27.1648 2.57812 24.6211 2.57812 22C2.57812 19.3789 3.09375 16.8352 4.09922 14.4375C5.07891 12.1258 6.47969 10.0461 8.25859 8.26719C10.0547 6.47969 12.1258 5.07891 14.4375 4.09922C16.8352 3.09375 19.3789 2.57812 22 2.57812C24.6211 2.57812 27.1648 3.09375 29.5625 4.09922C31.8742 5.07891 33.9539 6.47969 35.7328 8.25859C37.5203 10.0461 38.9211 12.1172 39.8922 14.4289C40.9062 16.818 41.4133 19.3617 41.4133 21.9914C41.4133 24.6125 40.8977 27.1562 39.8922 29.5539C38.9125 31.8656 37.5117 33.9453 35.7328 35.7242Z" fill="white"/>
  <g clip-path="url(#clip1_456_2214)">
  <path d="M22.0001 13.0094H17.5596C16.8662 13.0176 16.1797 13.1475 15.5313 13.3932C15.0591 13.5778 14.6302 13.8582 14.2717 14.2167C13.9132 14.5753 13.6327 15.0041 13.4481 15.4763C13.2024 16.1248 13.0725 16.8113 13.0644 17.5047C13.0095 18.6559 13.0095 19.0396 13.0095 21.9451C13.0095 24.8506 13.0095 25.2343 13.0644 26.3856C13.0725 27.0789 13.2024 27.7655 13.4481 28.4139C13.6327 28.8861 13.9132 29.315 14.2717 29.6735C14.6302 30.032 15.0591 30.3124 15.5313 30.4971C16.1797 30.7428 16.8662 30.8727 17.5596 30.8808H26.4405C27.1339 30.8727 27.8204 30.7428 28.4688 30.4971C28.9411 30.3124 29.3699 30.032 29.7284 29.6735C30.087 29.315 30.3674 28.8861 30.552 28.4139C30.7977 27.7655 30.9276 27.0789 30.9358 26.3856C30.9906 25.2343 30.9906 24.8506 30.9906 21.9451C30.9906 19.0396 30.9906 18.6559 30.9358 17.5047C30.9276 16.8113 30.7977 16.1248 30.552 15.4763C30.3674 15.0041 30.087 14.5753 29.7284 14.2167C29.3699 13.8582 28.9411 13.5778 28.4688 13.3932C27.8204 13.1475 27.1339 13.0176 26.4405 13.0094H22.0001ZM22.0001 11.0359H26.4953C27.4093 11.0743 28.3135 11.2404 29.1815 11.5293C29.9129 11.8415 30.5676 12.3092 31.1002 12.8998C31.674 13.4242 32.1074 14.0838 32.3611 14.8185C32.698 15.6754 32.8835 16.5843 32.9093 17.5047C32.9641 18.6559 32.9641 19.0396 32.9641 21.9999C32.9641 24.9602 32.9641 25.344 32.9093 26.4952C32.8835 27.4156 32.698 28.3245 32.3611 29.1814C32.1074 29.9161 31.674 30.5757 31.1002 31.1001C30.5758 31.6738 29.9162 32.1073 29.1815 32.361C28.3246 32.6979 27.4157 32.8834 26.4953 32.9092H17.5048C16.5844 32.8834 15.6755 32.6979 14.8186 32.361C14.0839 32.1073 13.4243 31.6738 12.8999 31.1001C12.3291 30.562 11.8804 29.9077 11.5842 29.1814C11.2953 28.3134 11.1293 27.4092 11.0908 26.4952C11.036 25.344 11.036 24.9602 11.036 21.9999C11.036 19.0396 11.036 18.6559 11.0908 17.5047C11.1293 16.5907 11.2953 15.6865 11.5842 14.8185C11.8804 14.0922 12.3291 13.4379 12.8999 12.8998C13.438 12.329 14.0923 11.8803 14.8186 11.5841C15.6866 11.2952 16.5908 11.1292 17.5048 11.0907H22.0001" fill="white"/>
  <path d="M22 16.3534C23.1168 16.3534 24.2085 16.6846 25.137 17.305C26.0656 17.9254 26.7893 18.8073 27.2167 19.8391C27.644 20.8708 27.7559 22.0061 27.538 23.1015C27.3201 24.1968 26.7823 25.2029 25.9927 25.9925C25.203 26.7822 24.1969 27.32 23.1016 27.5379C22.0063 27.7557 20.8709 27.6439 19.8392 27.2166C18.8074 26.7892 17.9256 26.0655 17.3051 25.1369C16.6847 24.2083 16.3535 23.1167 16.3535 21.9999C16.3535 20.5023 16.9484 19.0661 18.0073 18.0072C19.0662 16.9483 20.5025 16.3534 22 16.3534ZM22 25.6728C22.7264 25.6728 23.4366 25.4574 24.0406 25.0538C24.6446 24.6502 25.1154 24.0766 25.3934 23.4055C25.6714 22.7343 25.7441 21.9958 25.6024 21.2833C25.4607 20.5708 25.1108 19.9164 24.5972 19.4027C24.0835 18.889 23.429 18.5392 22.7166 18.3975C22.0041 18.2558 21.2656 18.3285 20.5944 18.6065C19.9233 18.8845 19.3496 19.3553 18.946 19.9593C18.5425 20.5633 18.327 21.2734 18.327 21.9999C18.327 22.974 18.714 23.9082 19.4028 24.5971C20.0916 25.2859 21.0259 25.6728 22 25.6728Z" fill="white"/>
  <path d="M14.8186 16.1342C14.8186 16.3944 14.8957 16.6488 15.0403 16.8651C15.1849 17.0815 15.3904 17.2501 15.6308 17.3497C15.8712 17.4493 16.1357 17.4753 16.3909 17.4246C16.6462 17.3738 16.8806 17.2485 17.0646 17.0645C17.2486 16.8805 17.3739 16.6461 17.4247 16.3908C17.4754 16.1356 17.4494 15.8711 17.3498 15.6307C17.2502 15.3903 17.0816 15.1848 16.8652 15.0402C16.6489 14.8956 16.3945 14.8185 16.1343 14.8185C15.7853 14.8185 15.4507 14.9571 15.2039 15.2038C14.9572 15.4506 14.8186 15.7852 14.8186 16.1342Z" fill="white"/>
  </g>
  </g>
  <defs>
  <clipPath id="clip0_456_2214">
  <rect width="44" height="44" fill="white"/>
  </clipPath>
  <clipPath id="clip1_456_2214">
  <rect width="22" height="22" fill="white" transform="matrix(-1 0 0 1 33 11)"/>
  </clipPath>
  </defs>
</svg>