<?xml version="1.0" encoding="UTF-8" standalone="no" ?>
<!DOCTYPE svg PUBLIC "-//W3C//DTD SVG 1.1//EN" "http://www.w3.org/Graphics/SVG/1.1/DTD/svg11.dtd">
<svg xmlns="http://www.w3.org/2000/svg" xmlns:xlink="http://www.w3.org/1999/xlink" version="1.1" width="135" height="30" viewBox="0 0 135 30" xml:space="preserve">
<desc>Created with Fabric.js 5.3.0</desc>
<defs>
</defs>
<g transform="matrix(1 0 0 1 67.5691598361 15.0691598361)" id="XhVr_k4VPnQM34snFODij"  >
<g style="" vector-effect="non-scaling-stroke"   >
		<g transform="matrix(1 0 0 1 347.34 0.05)" id="4xybkhkzOIDf-z0-Vcz0x"  >
<path style="stroke: none; stroke-width: 1; stroke-dasharray: none; stroke-linecap: butt; stroke-dashoffset: 0; stroke-linejoin: miter; stroke-miterlimit: 4; fill: rgb(255,255,255); fill-rule: nonzero; opacity: 1;" vector-effect="non-scaling-stroke"  transform=" translate(-599.6, -14.6)" d="M 587.8 20.1 L 587.8 8.8 L 585.5999999999999 8.8 L 585.5999999999999 13.4 L 580.6999999999999 13.4 L 580.6999999999999 8.8 L 578.4999999999999 8.8 L 578.4999999999999 20.1 L 580.6999999999999 20.1 L 580.6999999999999 15.400000000000002 L 585.5999999999999 15.400000000000002 L 585.5999999999999 20.1 L 587.8 20.1 z M 593.7 18.5 C 592.7 18.5 591.7 17.7 591.7 16.3 C 591.7 14.8 592.7 14.100000000000001 593.7 14.100000000000001 C 594.7 14.100000000000001 595.7 14.900000000000002 595.7 16.3 C 595.7 17.7 594.7 18.5 593.7 18.5 z M 593.7 12 C 591.3000000000001 12 589.6 13.7 589.6 16.2 C 589.6 18.599999999999998 591.4 20.4 593.7 20.4 C 596.1 20.4 597.8000000000001 18.599999999999998 597.8000000000001 16.2 C 597.8 13.8 596 12 593.7 12 z M 601.6 20.1 L 601.6 15.500000000000002 C 601.6 14.600000000000001 602.1 13.900000000000002 603.1 13.900000000000002 C 604.1 13.900000000000002 604.5 14.500000000000002 604.5 15.400000000000002 L 604.5 20.1 L 606.6 20.1 L 606.6 15.500000000000002 C 606.6 14.700000000000001 607.1 13.900000000000002 608.1 13.900000000000002 C 609.1 13.900000000000002 609.5 14.500000000000002 609.5 15.400000000000002 L 609.5 20.1 L 611.6 20.1 L 611.6 15 C 611.6 12.9 610.2 12 608.8000000000001 12 C 607.8000000000001 12 606.9000000000001 12.4 606.3000000000001 13.3 C 605.9000000000001 12.5 605.0000000000001 12 604.0000000000001 12 C 603.1000000000001 12 602.1000000000001 12.4 601.7000000000002 13.2 L 601.7000000000002 12.2 L 599.7000000000002 12.2 L 599.7000000000002 20.1 L 601.6 20.1 z M 615.2 15.3 C 615.2 14.600000000000001 615.9000000000001 13.700000000000001 617 13.700000000000001 C 618.2 13.700000000000001 618.7 14.500000000000002 618.8 15.3 L 615.2 15.3 z M 618.9 17.4 C 618.6 18.099999999999998 618.1 18.599999999999998 617.1 18.599999999999998 C 616 18.599999999999998 615.2 17.799999999999997 615.1 16.799999999999997 L 620.7 16.799999999999997 C 620.7 16.799999999999997 620.7 16.4 620.7 16.099999999999998 C 620.7 13.599999999999998 619.2 11.999999999999998 616.8000000000001 11.999999999999998 C 614.8000000000001 11.999999999999998 612.9000000000001 13.599999999999998 612.9000000000001 16.099999999999998 C 612.9000000000001 18.799999999999997 614.8000000000001 20.299999999999997 617.0000000000001 20.299999999999997 C 618.9000000000001 20.299999999999997 620.2000000000002 19.199999999999996 620.6000000000001 17.799999999999997 L 618.9 17.4 z" stroke-linecap="round" />
</g>
		<g transform="matrix(1 0 0 1 449.65 -0.02)" id="9vRSpQs5_tNd31jxPVDHY"  >
<path style="stroke: none; stroke-width: 1; stroke-dasharray: none; stroke-linecap: butt; stroke-dashoffset: 0; stroke-linejoin: miter; stroke-miterlimit: 4; fill: rgb(255,255,255); fill-rule: nonzero; opacity: 1;" vector-effect="non-scaling-stroke"  transform=" translate(-599.65, -14.65)" d="M 553 14.6 C 553 12 554.8 10.8 556.5 10.8 C 558.3 10.8 560.1 12 560.1 14.600000000000001 C 560.1 17.200000000000003 558.3000000000001 18.400000000000002 556.5 18.400000000000002 C 554.8 18.4 553 17.1 553 14.6 z M 550.7 14.6 C 550.7 18.2 553.5 20.5 556.5 20.5 C 559.6 20.5 562.3 18.2 562.3 14.6 C 562.3 10.899999999999999 559.5 8.7 556.5 8.7 C 553.4 8.7 550.7 10.9 550.7 14.6 z M 569.2 20.3 L 571.2 20.3 C 571.2 20 571.1 19.5 571.1 18.900000000000002 L 571.1 12.500000000000002 L 569 12.500000000000002 L 569 17 C 569 17.9 568.5 18.6 567.5 18.6 C 566.5 18.6 566.1 17.900000000000002 566.1 17 L 566.1 12.5 L 564 12.5 L 564 17.5 C 564 19.2 565.1 20.6 567 20.6 C 567.8 20.6 568.7 20.3 569.2 19.5 C 569.2 19.7 569.2 20.1 569.2 20.3 z M 578.3 12.4 C 578.0999999999999 12.4 578 12.4 577.8 12.4 C 577.0999999999999 12.4 576 12.6 575.5999999999999 13.6 L 575.5999999999999 12.4 L 573.4999999999999 12.4 L 573.4999999999999 20.3 L 575.5999999999999 20.3 L 575.5999999999999 16.7 C 575.5999999999999 15 576.4999999999999 14.5 577.5999999999999 14.5 C 577.8 14.5 577.9999999999999 14.5 578.1999999999999 14.6 L 578.1999999999999 12.4 z M 586.1 14.1 L 586.1 10.899999999999999 L 587.8000000000001 10.899999999999999 C 588.9000000000001 10.899999999999999 589.6 11.499999999999998 589.6 12.499999999999998 C 589.6 13.499999999999998 588.9 14.099999999999998 587.8000000000001 14.099999999999998 L 586.1 14.099999999999998 z M 588.1 16 C 590.3000000000001 16 591.8000000000001 14.5 591.8000000000001 12.5 C 591.8000000000001 10.5 590.3000000000001 9 588.1 9 L 583.9 9 L 583.9 20.3 L 586.1 20.3 L 586.1 16 L 588.1 16 z M 598 12.4 C 597.8 12.4 597.7 12.4 597.5 12.4 C 596.8 12.4 595.7 12.6 595.3 13.6 L 595.3 12.4 L 593.1999999999999 12.4 L 593.1999999999999 20.3 L 595.3 20.3 L 595.3 16.7 C 595.3 15 596.1999999999999 14.5 597.3 14.5 C 597.5 14.5 597.6999999999999 14.5 597.9 14.6 L 597.9 12.4 z M 602.9 18.6 C 601.9 18.6 600.9 17.8 600.9 16.400000000000002 C 600.9 14.900000000000002 601.9 14.200000000000003 602.9 14.200000000000003 C 603.9 14.200000000000003 604.9 15.000000000000004 604.9 16.400000000000002 C 604.9 17.8 604 18.6 602.9 18.6 z M 602.9 12.2 C 600.5 12.2 598.8 13.899999999999999 598.8 16.4 C 598.8 18.799999999999997 600.5999999999999 20.599999999999998 602.9 20.599999999999998 C 605.2 20.599999999999998 607 18.799999999999997 607 16.4 C 607.1 13.9 605.3 12.2 602.9 12.2 z M 616.3 8.7 L 614.1999999999999 8.7 L 614.1999999999999 13.2 C 613.9999999999999 12.799999999999999 613.3 12.2 611.9999999999999 12.2 C 609.7999999999998 12.2 608.1999999999999 14 608.1999999999999 16.299999999999997 C 608.1999999999999 18.699999999999996 609.8 20.4 611.9999999999999 20.4 C 613.0999999999999 20.4 613.8999999999999 19.9 614.1999999999999 19.299999999999997 C 614.1999999999999 19.699999999999996 614.1999999999999 20.099999999999998 614.3 20.199999999999996 L 616.3 20.199999999999996 C 616.3 19.899999999999995 616.1999999999999 19.299999999999997 616.1999999999999 18.799999999999997 L 616.1999999999999 8.7 z M 610.3 16.3 C 610.3 14.9 611.1999999999999 14.100000000000001 612.3 14.100000000000001 C 613.4 14.100000000000001 614.1999999999999 14.900000000000002 614.1999999999999 16.3 C 614.1999999999999 17.7 613.4 18.6 612.3 18.6 C 611.1 18.6 610.3 17.7 610.3 16.3 z M 623.7 20.3 L 625.7 20.3 C 625.7 20 625.6 19.5 625.6 18.900000000000002 L 625.6 12.500000000000002 L 623.5 12.500000000000002 L 623.5 17 C 623.5 17.9 623 18.6 622 18.6 C 621 18.6 620.6 17.900000000000002 620.6 17 L 620.6 12.5 L 618.5 12.5 L 618.5 17.5 C 618.5 19.2 619.6 20.6 621.5 20.6 C 622.3 20.6 623.2 20.3 623.7 19.5 C 623.6 19.7 623.7 20.1 623.7 20.3 z M 631.4 14.1 C 632.5 14.1 633 14.799999999999999 633.1 15.4 L 635 14.8 C 634.7 13.5 633.4 12.100000000000001 631.3 12.100000000000001 C 629 12.100000000000001 627.1999999999999 13.8 627.1999999999999 16.3 C 627.1999999999999 18.7 628.9999999999999 20.5 631.3 20.5 C 633.4 20.5 634.5999999999999 19.2 635 17.8 L 633.1 17.2 C 632.9 17.8 632.4 18.5 631.3000000000001 18.5 C 630.2 18.5 629.3000000000001 17.7 629.3000000000001 16.3 C 629.4 14.9 630.3 14.1 631.4 14.1 z M 639.3 10 L 637.4 10 L 637.4 11.1 C 637.4 11.799999999999999 637 12.299999999999999 636.1999999999999 12.299999999999999 L 635.8 12.299999999999999 L 635.8 14.2 L 637.1999999999999 14.2 L 637.1999999999999 18 C 637.1999999999999 19.5 638.1999999999999 20.4 639.6999999999999 20.4 C 640.3 20.4 640.6999999999999 20.299999999999997 640.9 20.2 L 640.9 18.4 C 640.8 18.4 640.5 18.5 640.1999999999999 18.5 C 639.5999999999999 18.5 639.3 18.3 639.3 17.6 L 639.3 14.3 L 640.9 14.3 L 640.9 12.4 L 639.3 12.4 L 639.3 10 z M 642.2 18.1 C 642.3000000000001 19 643.1 20.5 645.5 20.5 C 647.6 20.5 648.6 19.2 648.6 17.9 C 648.6 16.7 647.8000000000001 15.799999999999999 646.3000000000001 15.499999999999998 L 645.2 15.299999999999999 C 644.8000000000001 15.2 644.5 14.999999999999998 644.5 14.6 C 644.5 14.2 644.9 13.799999999999999 645.5 13.799999999999999 C 646.4 13.799999999999999 646.7 14.399999999999999 646.8 14.899999999999999 L 648.5999999999999 14.499999999999998 C 648.4999999999999 13.699999999999998 647.8 12.2 645.4999999999999 12.2 C 643.7999999999998 12.2 642.5999999999999 13.399999999999999 642.5999999999999 14.799999999999999 C 642.5999999999999 15.899999999999999 643.3 16.799999999999997 644.8 17.2 L 645.8 17.4 C 646.4 17.5 646.5999999999999 17.799999999999997 646.5999999999999 18.2 C 646.5999999999999 18.599999999999998 646.3 19 645.5999999999999 19 C 644.6999999999999 19 644.1999999999999 18.4 644.1999999999999 17.8 L 642.2 18.1 z" stroke-linecap="round" />
</g>
		<g transform="matrix(1 0 0 1 596.04 -0.17)" id="Wj2i4zZ-6LsS_DVxmxYat"  >
<path style="stroke: none; stroke-width: 1; stroke-dasharray: none; stroke-linecap: butt; stroke-dashoffset: 0; stroke-linejoin: miter; stroke-miterlimit: 4; fill: rgb(255,255,255); fill-rule: nonzero; opacity: 1;" vector-effect="non-scaling-stroke"  transform=" translate(-599.55, -14.6)" d="M 543.3 9 L 540.6999999999999 9 L 538.1999999999999 12.9 L 535.8 9 L 533.0999999999999 9 L 536.8 14.7 L 533.0999999999999 20.4 L 535.6999999999999 20.4 L 538.1999999999999 16.5 L 540.5999999999999 20.4 L 543.3 20.4 L 539.5999999999999 14.7 L 543.3 9 z M 547.8 15.6 L 547.8 20.4 L 550 20.4 L 550 15.599999999999998 L 554 8.999999999999998 L 551.5 8.999999999999998 L 549 13.499999999999998 L 546.5 9 L 543.9 9 L 547.8 15.6 z M 563.8 20.4 L 563.8 18.299999999999997 L 557.6999999999999 18.299999999999997 L 563.6999999999999 11.099999999999998 L 563.6999999999999 9 L 555.0999999999999 9 L 555.0999999999999 11.1 L 560.8 11.1 L 554.9 18.2 L 554.9 20.3 L 563.8 20.3 z M 573.5 20.4 L 575.9 20.4 L 571.6 9 L 569 9 L 564.6 20.3 L 566.9 20.3 L 567.8 17.7 L 572.4 17.7 L 573.5 20.4 z M 570.2 11.5 L 571.8000000000001 15.8 L 568.7 15.8 L 570.2 11.5 z M 584.6 20.4 L 584.6 18.299999999999997 L 579.5 18.299999999999997 L 579.5 9 L 577.3 9 L 577.3 20.3 L 584.6 20.3 z M 592.4 18.3 L 592.4 11.100000000000001 L 594.1999999999999 11.100000000000001 C 596.0999999999999 11.100000000000001 597.5999999999999 12.3 597.5999999999999 14.700000000000001 C 597.5999999999999 17.1 595.9999999999999 18.3 594.1999999999999 18.3 L 592.4 18.3 z M 594.3 20.4 C 597.5 20.4 599.9 18.299999999999997 599.9 14.7 C 599.9 11.100000000000001 597.5 9 594.3 9 L 590.1999999999999 9 L 590.1999999999999 20.3 L 594.3 20.3 z M 603.8 20.4 L 603.8 12.499999999999998 L 601.6999999999999 12.499999999999998 L 601.6999999999999 20.4 L 603.8 20.4 z M 601.4 9.9 C 601.4 10.6 602 11.200000000000001 602.6999999999999 11.200000000000001 C 603.4 11.200000000000001 603.9999999999999 10.600000000000001 603.9999999999999 9.9 C 603.9999999999999 9.200000000000001 603.3999999999999 8.6 602.6999999999999 8.6 C 602 8.6 601.4 9.2 601.4 9.9 z M 613.8 11.6 C 613.8 10.7 614.5 10.5 614.9 10.5 C 615.3 10.5 615.5 10.5 615.6 10.6 L 615.6 8.8 C 615.4 8.700000000000001 615 8.600000000000001 614.5 8.600000000000001 C 612.8 8.600000000000001 611.6 9.8 611.6 11.500000000000002 L 611.6 12.400000000000002 L 608.6 12.400000000000002 L 608.6 11.500000000000002 C 608.6 10.600000000000001 609.2 10.400000000000002 609.7 10.400000000000002 C 610.1 10.400000000000002 610.3000000000001 10.400000000000002 610.4000000000001 10.500000000000002 L 610.4000000000001 8.8 C 610.2 8.700000000000001 609.8000000000001 8.600000000000001 609.3000000000001 8.600000000000001 C 607.6 8.600000000000001 606.4000000000001 9.8 606.4000000000001 11.500000000000002 L 606.4000000000001 12.400000000000002 L 605.1000000000001 12.400000000000002 L 605.1000000000001 14.200000000000003 L 606.4000000000001 14.200000000000003 L 606.4000000000001 20.200000000000003 L 608.5000000000001 20.200000000000003 L 608.5000000000001 14.200000000000003 L 611.5000000000001 14.200000000000003 L 611.5000000000001 20.200000000000003 L 613.6000000000001 20.200000000000003 L 613.6000000000001 14.200000000000003 L 615.4000000000001 14.200000000000003 L 615.4000000000001 12.400000000000002 L 613.6000000000001 12.400000000000002 L 613.6000000000001 11.6 z M 618.5 15.5 C 618.5 14.8 619.2 13.9 620.3 13.9 C 621.5 13.9 622 14.700000000000001 622.0999999999999 15.5 L 618.5 15.5 z M 622.2 17.6 C 621.9000000000001 18.3 621.4000000000001 18.8 620.4000000000001 18.8 C 619.3000000000001 18.8 618.5000000000001 18 618.4000000000001 17 L 624.0000000000001 17 C 624.0000000000001 17 624.0000000000001 16.6 624.0000000000001 16.3 C 624.0000000000001 13.8 622.5000000000001 12.200000000000001 620.1000000000001 12.200000000000001 C 618.1000000000001 12.200000000000001 616.2000000000002 13.8 616.2000000000002 16.3 C 616.2000000000002 19 618.1000000000001 20.5 620.3000000000002 20.5 C 622.2000000000002 20.5 623.5000000000002 19.4 623.9000000000002 18 L 622.2 17.6 z M 630.6 12.5 C 630.4 12.5 630.3000000000001 12.5 630.1 12.5 C 629.4 12.5 628.3000000000001 12.7 627.9 13.7 L 627.9 12.5 L 625.8 12.5 L 625.8 20.4 L 627.9 20.4 L 627.9 16.799999999999997 C 627.9 15.099999999999998 628.8 14.599999999999998 629.9 14.599999999999998 C 630.1 14.599999999999998 630.3 14.599999999999998 630.5 14.699999999999998 L 630.5 12.5 z M 633.5 15.5 C 633.5 14.8 634.2 13.9 635.3 13.9 C 636.5 13.9 637 14.700000000000001 637.0999999999999 15.5 L 633.5 15.5 z M 637.3 17.6 C 637 18.3 636.5 18.8 635.5 18.8 C 634.4 18.8 633.6 18 633.5 17 L 639.1 17 C 639.1 17 639.1 16.6 639.1 16.3 C 639.1 13.8 637.6 12.200000000000001 635.2 12.200000000000001 C 633.2 12.200000000000001 631.3000000000001 13.8 631.3000000000001 16.3 C 631.3000000000001 19 633.2 20.5 635.4000000000001 20.5 C 637.3000000000001 20.5 638.6000000000001 19.4 639.0000000000001 18 L 637.3 17.6 z M 643 15.8 C 643 14.9 643.5 14.200000000000001 644.5 14.200000000000001 C 645.5 14.200000000000001 646 14.9 646 15.8 L 646 20.4 L 648.1 20.4 L 648.1 15.399999999999999 C 648.1 13.7 647.2 12.299999999999999 645.3000000000001 12.299999999999999 C 644.5000000000001 12.299999999999999 643.5000000000001 12.7 643.0000000000001 13.499999999999998 L 643.0000000000001 12.499999999999998 L 640.9000000000001 12.499999999999998 L 640.9000000000001 20.4 L 643.0000000000001 20.4 L 643.0000000000001 15.8 z M 653.7 14.2 C 654.8000000000001 14.2 655.3000000000001 14.899999999999999 655.4000000000001 15.5 L 657.3000000000001 14.9 C 657.0000000000001 13.6 655.7 12.2 653.6 12.2 C 651.3000000000001 12.2 649.5 13.899999999999999 649.5 16.4 C 649.5 18.799999999999997 651.3 20.599999999999998 653.6 20.599999999999998 C 655.7 20.599999999999998 656.9 19.299999999999997 657.3000000000001 17.9 L 655.4000000000001 17.299999999999997 C 655.2 17.9 654.7 18.599999999999998 653.6000000000001 18.599999999999998 C 652.5000000000001 18.599999999999998 651.6000000000001 17.799999999999997 651.6000000000001 16.4 C 651.7 15 652.6 14.2 653.7 14.2 z M 660.5 15.5 C 660.5 14.8 661.2 13.9 662.3 13.9 C 663.5 13.9 664 14.700000000000001 664.0999999999999 15.5 L 660.5 15.5 z M 664.2 17.6 C 663.9000000000001 18.3 663.4000000000001 18.8 662.4000000000001 18.8 C 661.3000000000001 18.8 660.5000000000001 18 660.4000000000001 17 L 666.0000000000001 17 C 666.0000000000001 17 666.0000000000001 16.6 666.0000000000001 16.3 C 666.0000000000001 13.8 664.5000000000001 12.200000000000001 662.1000000000001 12.200000000000001 C 660.1000000000001 12.200000000000001 658.2000000000002 13.8 658.2000000000002 16.3 C 658.2000000000002 19 660.1000000000001 20.5 662.3000000000002 20.5 C 664.2000000000002 20.5 665.5000000000002 19.4 665.9000000000002 18 L 664.2 17.6 z" stroke-linecap="round" />
</g>
		<g transform="matrix(1 0 0 1 753.06 1.35)" id="nmx5qDF5bzXnerQgVnGDp"  >
<path style="stroke: none; stroke-width: 1; stroke-dasharray: none; stroke-linecap: butt; stroke-dashoffset: 0; stroke-linejoin: miter; stroke-miterlimit: 4; fill: rgb(255,255,255); fill-rule: nonzero; opacity: 1;" vector-effect="non-scaling-stroke"  transform=" translate(-599.65, -14.6)" d="M 549.4 18.9 L 551.8 18.9 L 547.5 7.599999999999998 L 544.9 7.599999999999998 L 540.5 18.9 L 542.8 18.9 L 543.6999999999999 16.299999999999997 L 548.3 16.299999999999997 L 549.4 18.9 z M 546.1 10 L 547.7 14.3 L 544.6 14.3 L 546.1 10 z M 555.2 18.9 L 555.2 7.3 L 553.1 7.3 L 553.1 18.9 L 555.2 18.9 z M 559.6 18.9 L 559.6 7.3 L 557.5 7.3 L 557.5 18.9 L 559.6 18.9 z M 563.4 14 C 563.4 13.3 564.1 12.4 565.1999999999999 12.4 C 566.4 12.4 566.9 13.200000000000001 566.9999999999999 14 L 563.4 14 z M 567.2 16.1 C 566.9000000000001 16.8 566.4000000000001 17.3 565.4000000000001 17.3 C 564.3000000000001 17.3 563.5000000000001 16.5 563.4000000000001 15.5 L 569.0000000000001 15.5 C 569.0000000000001 15.5 569.0000000000001 15.1 569.0000000000001 14.8 C 569.0000000000001 12.3 567.5000000000001 10.700000000000001 565.1000000000001 10.700000000000001 C 563.1000000000001 10.700000000000001 561.2000000000002 12.3 561.2000000000002 14.8 C 561.2000000000002 17.5 563.1000000000001 19 565.3000000000002 19 C 567.2000000000002 19 568.5000000000002 17.9 568.9000000000002 16.5 L 567.2 16.1 z M 575.5 10.9 C 575.3 10.9 575.2 10.9 575 10.9 C 574.3 10.9 573.2 11.1 572.8 12.1 L 572.8 11 L 570.6999999999999 11 L 570.6999999999999 18.9 L 572.8 18.9 L 572.8 15.299999999999999 C 572.8 13.6 573.6999999999999 13.099999999999998 574.8 13.099999999999998 C 575 13.099999999999998 575.1999999999999 13.099999999999998 575.4 13.199999999999998 L 575.4 10.9 z M 576.4 19.3 C 576.6 20.8 578.1 22.1 580.1999999999999 22.1 C 583.1999999999999 22.1 584.3 20.1 584.3 18 L 584.3 11 L 582.3 11 L 582.3 11.9 C 582 11.4 581.3 10.8 580.0999999999999 10.8 C 577.8999999999999 10.8 576.3999999999999 12.600000000000001 576.3999999999999 14.600000000000001 C 576.3999999999999 16.8 577.9999999999999 18.400000000000002 580.0999999999999 18.400000000000002 C 581.1999999999999 18.400000000000002 581.9999999999999 17.900000000000002 582.3 17.400000000000002 L 582.3 18.000000000000004 C 582.3 19.500000000000004 581.5 20.200000000000003 580.1999999999999 20.200000000000003 C 579.1999999999999 20.200000000000003 578.4999999999999 19.6 578.4 18.700000000000003 L 576.4 19.3 z M 580.4 16.7 C 579.3 16.7 578.5 15.899999999999999 578.5 14.7 C 578.5 13.5 579.3 12.7 580.4 12.7 C 581.4 12.7 582.3 13.5 582.3 14.7 C 582.3 15.899999999999999 581.5 16.7 580.4 16.7 z M 589.1 22 L 594 11 L 591.7 11 L 589.8000000000001 15.6 L 587.7 11 L 585.3000000000001 11 L 588.6 17.9 L 586.7 22 L 589.1 22 z M 610.1 15.3 L 607.6 7.500000000000001 L 605.3000000000001 7.500000000000001 L 602.8000000000001 15.3 L 600.7 7.500000000000001 L 598.4000000000001 7.500000000000001 L 601.6000000000001 18.8 L 603.9000000000001 18.8 L 606.5000000000001 10.700000000000001 L 609.1000000000001 18.8 L 611.4000000000001 18.8 L 614.5000000000001 7.5 L 612.2000000000002 7.5 L 610.1 15.3 z M 617.9 18.9 L 617.9 11 L 615.8 11 L 615.8 18.9 L 617.9 18.9 z M 615.5 8.4 C 615.5 9.1 616.1 9.700000000000001 616.8 9.700000000000001 C 617.5 9.700000000000001 618.0999999999999 9.100000000000001 618.0999999999999 8.4 C 618.0999999999999 7.7 617.4999999999999 7.1000000000000005 616.8 7.1000000000000005 C 616.1 7.1 615.5 7.7 615.5 8.4 z M 619.5 16.7 C 619.6 17.599999999999998 620.4 19.099999999999998 622.8 19.099999999999998 C 624.9 19.099999999999998 625.9 17.799999999999997 625.9 16.499999999999996 C 625.9 15.299999999999997 625.1 14.399999999999997 623.6 14.099999999999996 L 622.5 13.899999999999997 C 622.1 13.799999999999997 621.8 13.599999999999996 621.8 13.199999999999998 C 621.8 12.799999999999997 622.1999999999999 12.399999999999997 622.8 12.399999999999997 C 623.6999999999999 12.399999999999997 624 12.999999999999996 624.0999999999999 13.499999999999996 L 625.8999999999999 13.099999999999996 C 625.7999999999998 12.299999999999995 625.0999999999999 10.799999999999997 622.7999999999998 10.799999999999997 C 621.0999999999998 10.799999999999997 619.8999999999999 11.999999999999996 619.8999999999999 13.399999999999997 C 619.8999999999999 14.499999999999996 620.5999999999999 15.399999999999997 622.0999999999999 15.799999999999997 L 623.0999999999999 15.999999999999996 C 623.6999999999999 16.099999999999998 623.8999999999999 16.399999999999995 623.8999999999999 16.799999999999997 C 623.8999999999999 17.199999999999996 623.5999999999999 17.599999999999998 622.8999999999999 17.599999999999998 C 621.9999999999999 17.599999999999998 621.4999999999999 16.999999999999996 621.4999999999999 16.4 L 619.5 16.7 z M 635 7.3 L 632.9 7.3 L 632.9 11.8 C 632.6999999999999 11.4 632 10.8 630.6999999999999 10.8 C 628.4999999999999 10.8 626.9 12.600000000000001 626.9 14.9 C 626.9 17.3 628.5 19 630.6999999999999 19 C 631.8 19 632.5999999999999 18.5 632.9 17.9 C 632.9 18.299999999999997 632.9 18.7 633 18.799999999999997 L 635 18.799999999999997 C 635 18.499999999999996 634.9 17.9 634.9 17.4 L 634.9 7.3 z M 629 14.9 C 629 13.5 629.9 12.7 631 12.7 C 632.1 12.7 632.9 13.5 632.9 14.899999999999999 C 632.9 16.299999999999997 632.1 17.2 631 17.2 C 629.9 17.1 629 16.3 629 14.9 z M 640.8 17.2 C 639.8 17.2 638.8 16.4 638.8 15 C 638.8 13.5 639.8 12.8 640.8 12.8 C 641.8 12.8 642.8 13.600000000000001 642.8 15 C 642.8 16.4 641.9 17.2 640.8 17.2 z M 640.8 10.7 C 638.4 10.7 636.6999999999999 12.399999999999999 636.6999999999999 14.899999999999999 C 636.6999999999999 17.299999999999997 638.4999999999999 19.099999999999998 640.8 19.099999999999998 C 643.1 19.099999999999998 644.9 17.299999999999997 644.9 14.899999999999999 C 645 12.5 643.2 10.7 640.8 10.7 z M 648.8 18.9 L 648.8 14.299999999999999 C 648.8 13.399999999999999 649.3 12.7 650.3 12.7 C 651.3 12.7 651.6999999999999 13.299999999999999 651.6999999999999 14.2 L 651.6999999999999 18.9 L 653.8 18.9 L 653.8 14.299999999999999 C 653.8 13.499999999999998 654.3 12.7 655.3 12.7 C 656.3 12.7 656.6999999999999 13.299999999999999 656.6999999999999 14.2 L 656.6999999999999 18.9 L 658.8 18.9 L 658.8 13.799999999999999 C 658.8 11.7 657.4 10.799999999999999 656 10.799999999999999 C 655 10.799999999999999 654.1 11.2 653.5 12.1 C 653.1 11.299999999999999 652.2 10.799999999999999 651.2 10.799999999999999 C 650.3000000000001 10.799999999999999 649.3000000000001 11.2 648.9000000000001 11.999999999999998 L 648.9000000000001 10.999999999999998 L 646.9000000000001 10.999999999999998 L 646.9000000000001 18.9 L 648.8 18.9 z" stroke-linecap="round" />
</g>
		<g transform="matrix(1 0 0 1 877.53 1.36)" id="oaZ3Jo4NihuBlfUWUG_8b"  >
<path style="stroke: none; stroke-width: 1; stroke-dasharray: none; stroke-linecap: butt; stroke-dashoffset: 0; stroke-linejoin: miter; stroke-miterlimit: 4; fill: rgb(255,255,255); fill-rule: nonzero; opacity: 1;" vector-effect="non-scaling-stroke"  transform=" translate(-599.6, -14.6)" d="M 575.6 9.6 L 575.6 7.5 L 566.2 7.5 L 566.2 9.6 L 569.8000000000001 9.6 L 569.8000000000001 18.799999999999997 L 572.0000000000001 18.799999999999997 L 572.0000000000001 9.6 L 575.6 9.6 z M 580.6 10.9 C 580.4 10.9 580.3000000000001 10.9 580.1 10.9 C 579.4 10.9 578.3000000000001 11.1 577.9 12.1 L 577.9 11 L 575.8 11 L 575.8 18.9 L 577.9 18.9 L 577.9 15.299999999999999 C 577.9 13.6 578.8 13.099999999999998 579.9 13.099999999999998 C 580.1 13.099999999999998 580.3 13.099999999999998 580.5 13.199999999999998 L 580.5 10.9 z M 585.2 21.9 L 590.1 10.899999999999999 L 587.8000000000001 10.899999999999999 L 585.9000000000001 15.499999999999998 L 583.8000000000001 10.899999999999999 L 581.4000000000001 10.899999999999999 L 584.7 17.799999999999997 L 582.8000000000001 21.9 L 585.2 21.9 z M 604.6 7.5 L 602 7.5 L 599.5 11.4 L 597.1 7.5 L 594.4 7.5 L 598.1 13.2 L 594.4 18.9 L 597 18.9 L 599.5 14.999999999999998 L 601.9 18.9 L 604.6 18.9 L 600.9 13.2 L 604.6 7.5 z M 608.2 21.9 L 613.1 10.899999999999999 L 610.8000000000001 10.899999999999999 L 608.9000000000001 15.499999999999998 L 606.8000000000001 10.899999999999999 L 604.4000000000001 10.899999999999999 L 607.7 17.799999999999997 L 605.8000000000001 21.9 L 608.2 21.9 z M 620.4 18.8 L 620.4 17 L 616.5 17 L 620.3 12.8 L 620.3 11 L 614 11 L 614 12.8 L 617.6 12.8 L 613.9 17 L 613.9 18.9 L 620.4 18.9 z M 621.8 16.7 C 621.8 17.9 622.8 19.099999999999998 624.5 19.099999999999998 C 625.7 19.099999999999998 626.4 18.599999999999998 626.8 17.9 C 626.8 18.2 626.8 18.599999999999998 626.9 18.799999999999997 L 628.9 18.799999999999997 C 628.9 18.499999999999996 628.8 17.999999999999996 628.8 17.599999999999998 L 628.8 13.699999999999998 C 628.8 12.099999999999998 627.9 10.699999999999998 625.4 10.699999999999998 C 623.3 10.699999999999998 622.1999999999999 12.099999999999998 622 13.299999999999997 L 623.9 13.699999999999998 C 624 12.999999999999998 624.5 12.399999999999997 625.4 12.399999999999997 C 626.3 12.399999999999997 626.6999999999999 12.899999999999997 626.6999999999999 13.399999999999997 C 626.6999999999999 13.699999999999998 626.5999999999999 13.899999999999997 626.0999999999999 13.999999999999996 L 624.1999999999999 14.299999999999997 C 622.8 14.5 621.8 15.3 621.8 16.7 z M 624.9 17.5 C 624.1999999999999 17.5 623.9 17.1 623.9 16.6 C 623.9 16 624.3 15.700000000000001 624.9 15.600000000000001 L 626.6999999999999 15.3 L 626.6999999999999 15.700000000000001 C 626.7 17 625.8 17.5 624.9 17.5 z M 633 18.8 L 633 7.3 L 630.9 7.3 L 630.9 18.9 L 633 18.9 z" stroke-linecap="round" />
</g>
		<g transform="matrix(1 0 0 1 992.7 1.36)" id="9C348kykPjgshr0vy7DXy"  >
<path style="stroke: none; stroke-width: 1; stroke-dasharray: none; stroke-linecap: butt; stroke-dashoffset: 0; stroke-linejoin: miter; stroke-miterlimit: 4; fill: rgb(255,255,255); fill-rule: nonzero; opacity: 1;" vector-effect="non-scaling-stroke"  transform=" translate(-599.6, -14.6)" d="M 561.1 15.3 L 558.6 7.500000000000001 L 556.3000000000001 7.500000000000001 L 553.8000000000001 15.3 L 551.7 7.500000000000001 L 549.4000000000001 7.500000000000001 L 552.6000000000001 18.8 L 554.9000000000001 18.8 L 557.5000000000001 10.700000000000001 L 560.1000000000001 18.8 L 562.4000000000001 18.8 L 565.5000000000001 7.5 L 563.2000000000002 7.5 L 561.1 15.3 z M 568.9 14.2 C 569 13.299999999999999 569.5 12.7 570.4 12.7 C 571.4 12.7 571.9 13.399999999999999 571.9 14.299999999999999 L 571.9 18.9 L 574 18.9 L 574 13.899999999999999 C 574 12.2 573.1 10.799999999999999 571.1 10.799999999999999 C 570.3000000000001 10.799999999999999 569.5 11.1 569 11.7 L 569 7.3 L 566.9 7.3 L 566.9 18.9 L 569 18.9 L 569 14.2 z M 577.6 14 C 577.6 13.3 578.3000000000001 12.4 579.4 12.4 C 580.6 12.4 581.1 13.200000000000001 581.1999999999999 14 L 577.6 14 z M 581.3 16.1 C 581.0999999999999 16.8 580.5 17.3 579.5 17.3 C 578.4 17.3 577.6 16.5 577.5 15.5 L 583.1 15.5 C 583.1 15.5 583.1 15.1 583.1 14.8 C 583.1 12.3 581.7 10.700000000000001 579.2 10.700000000000001 C 577.2 10.700000000000001 575.3000000000001 12.3 575.3000000000001 14.8 C 575.3000000000001 17.5 577.2 19 579.4000000000001 19 C 581.3000000000001 19 582.6000000000001 17.9 583.0000000000001 16.5 L 581.3 16.1 z M 589.7 10.9 C 589.5 10.9 589.4000000000001 10.9 589.2 10.9 C 588.5 10.9 587.4000000000001 11.1 587 12.1 L 587 11 L 584.9 11 L 584.9 18.9 L 587 18.9 L 587 15.299999999999999 C 587 13.6 587.9 13.099999999999998 589 13.099999999999998 C 589.2 13.099999999999998 589.4 13.099999999999998 589.6 13.199999999999998 L 589.6 10.9 z M 592.7 14 C 592.8000000000001 13.3 593.4000000000001 12.4 594.5 12.4 C 595.7 12.4 596.2 13.200000000000001 596.3 14 L 592.7 14 z M 596.4 16.1 C 596.1 16.8 595.6 17.3 594.6 17.3 C 593.5 17.3 592.7 16.5 592.6 15.5 L 598.2 15.5 C 598.2 15.5 598.2 15.1 598.2 14.8 C 598.2 12.3 596.7 10.700000000000001 594.3000000000001 10.700000000000001 C 592.3000000000001 10.700000000000001 590.4000000000001 12.3 590.4000000000001 14.8 C 590.4000000000001 17.5 592.3000000000001 19 594.5000000000001 19 C 596.4000000000001 19 597.7000000000002 17.9 598.1000000000001 16.5 L 596.4 16.1 z M 606.6 8.6 L 604.7 8.6 L 604.7 9.7 C 604.7 10.399999999999999 604.3000000000001 10.899999999999999 603.5 10.899999999999999 L 603 10.899999999999999 L 603 12.799999999999999 L 604.4 12.799999999999999 L 604.4 16.5 C 604.4 18 605.4 18.9 606.9 18.9 C 607.5 18.9 607.9 18.799999999999997 608.1 18.7 L 608.1 17 C 608 17 607.7 17.1 607.4 17.1 C 606.8 17.1 606.5 16.900000000000002 606.5 16.200000000000003 L 606.5 12.900000000000002 L 608.1 12.900000000000002 L 608.1 11 L 606.5 11 L 606.5 8.6 z M 613.4 17.1 C 612.4 17.1 611.4 16.3 611.4 14.900000000000002 C 611.4 13.400000000000002 612.4 12.700000000000003 613.4 12.700000000000003 C 614.4 12.700000000000003 615.4 13.500000000000004 615.4 14.900000000000002 C 615.4 16.4 614.4 17.1 613.4 17.1 z M 613.4 10.7 C 611 10.7 609.3 12.399999999999999 609.3 14.899999999999999 C 609.3 17.299999999999997 611.0999999999999 19.099999999999998 613.4 19.099999999999998 C 615.6999999999999 19.099999999999998 617.5 17.299999999999997 617.5 14.899999999999999 C 617.5 12.5 615.8 10.7 613.4 10.7 z M 623.3 7.5 L 623.3 18.8 L 627.6999999999999 18.8 C 629.8 18.8 631.1999999999999 17.5 631.1999999999999 15.600000000000001 C 631.1999999999999 14.200000000000001 630.3 13.200000000000001 629.1999999999999 12.900000000000002 C 630.0999999999999 12.600000000000001 630.8 11.600000000000001 630.8 10.500000000000002 C 630.8 8.700000000000001 629.5999999999999 7.400000000000002 627.4 7.400000000000002 L 623.3 7.400000000000002 z M 625.5 12.2 L 625.5 9.4 L 627.1 9.4 C 628.2 9.4 628.7 9.9 628.7 10.8 C 628.7 11.700000000000001 628.1 12.200000000000001 627.1 12.200000000000001 L 625.5 12.200000000000001 z M 625.5 17 L 625.5 14 L 627.3 14 C 628.4 14 629 14.6 629 15.5 C 629 16.4 628.4 17 627.3 17 L 625.5 17 z M 638 18.8 L 640 18.8 C 640 18.5 639.9 18 639.9 17.400000000000002 L 639.9 11 L 637.8 11 L 637.8 15.6 C 637.8 16.5 637.3 17.2 636.3 17.2 C 635.3 17.2 634.9 16.5 634.9 15.6 L 634.9 11 L 632.8 11 L 632.8 16 C 632.8 17.7 633.9 19.1 635.8 19.1 C 636.5999999999999 19.1 637.5 18.8 638 18 C 637.9 18.3 637.9 18.7 638 18.8 z M 644.9 21.9 L 649.8 10.899999999999999 L 647.5 10.899999999999999 L 645.6 15.499999999999998 L 643.5 10.899999999999999 L 641.1 10.899999999999999 L 644.4 17.799999999999997 L 642.6 21.9 L 644.9 21.9 z" stroke-linecap="round" />
</g>
		<g transform="matrix(1 0 0 1 1102.35 1.35)" id="6i1ePmFjr8vcqyopg8FMN"  >
<path style="stroke: none; stroke-width: 1; stroke-dasharray: none; stroke-linecap: butt; stroke-dashoffset: 0; stroke-linejoin: miter; stroke-miterlimit: 4; fill: rgb(255,255,255); fill-rule: nonzero; opacity: 1;" vector-effect="non-scaling-stroke"  transform=" translate(-599.65, -14.6)" d="M 579.8 10.2 C 579.5 8.899999999999999 578.5 7.299999999999999 575.6999999999999 7.299999999999999 C 573.5999999999999 7.299999999999999 571.8 8.799999999999999 571.8 10.899999999999999 C 571.8 12.599999999999998 573 13.799999999999999 574.8 14.099999999999998 L 576.4 14.399999999999999 C 577.3 14.599999999999998 577.8 15.099999999999998 577.8 15.7 C 577.8 16.5 577.0999999999999 17.099999999999998 576 17.099999999999998 C 574.4 17.099999999999998 573.6 16.099999999999998 573.5 14.999999999999998 L 571.4 15.499999999999998 C 571.6 17.099999999999998 572.9 19.099999999999998 575.9 19.099999999999998 C 578.5 19.099999999999998 580 17.299999999999997 580 15.599999999999998 C 580 13.999999999999998 578.9 12.699999999999998 576.8 12.299999999999997 L 575.1999999999999 11.999999999999996 C 574.4 11.799999999999997 573.9999999999999 11.299999999999997 573.9999999999999 10.699999999999996 C 573.9999999999999 9.899999999999995 574.6999999999999 9.299999999999995 575.7999999999998 9.299999999999995 C 577.1999999999998 9.299999999999995 577.6999999999998 10.299999999999995 577.8999999999999 10.899999999999995 L 579.8 10.2 z M 581.2 16.7 C 581.2 17.9 582.2 19.099999999999998 583.9000000000001 19.099999999999998 C 585.1000000000001 19.099999999999998 585.8000000000001 18.599999999999998 586.2 17.9 C 586.2 18.2 586.2 18.599999999999998 586.3000000000001 18.799999999999997 L 588.2 18.799999999999997 C 588.2 18.499999999999996 588.1 17.999999999999996 588.1 17.599999999999998 L 588.1 13.699999999999998 C 588.1 12.099999999999998 587.2 10.699999999999998 584.7 10.699999999999998 C 582.6 10.699999999999998 581.5 12.099999999999998 581.3000000000001 13.299999999999997 L 583.2 13.699999999999998 C 583.3000000000001 12.999999999999998 583.8000000000001 12.399999999999997 584.7 12.399999999999997 C 585.6 12.399999999999997 586 12.899999999999997 586 13.399999999999997 C 586 13.699999999999998 585.9 13.899999999999997 585.4 13.999999999999996 L 583.5 14.299999999999997 C 582.2 14.5 581.2 15.3 581.2 16.7 z M 584.3 17.5 C 583.5999999999999 17.5 583.3 17.1 583.3 16.6 C 583.3 16 583.6999999999999 15.700000000000001 584.3 15.600000000000001 L 586.0999999999999 15.3 L 586.0999999999999 15.700000000000001 C 586.1 17.1 585.2 17.5 584.3 17.5 z M 597.6 11 L 595.4 11 L 593.5 16.3 L 591.5 11 L 589.2 11 L 592.4000000000001 18.9 L 594.5000000000001 18.9 L 597.6 11 z M 601 18.9 L 601 11 L 598.9 11 L 598.9 18.9 L 601 18.9 z M 598.6 8.4 C 598.6 9.1 599.2 9.700000000000001 599.9 9.700000000000001 C 600.6 9.700000000000001 601.1999999999999 9.100000000000001 601.1999999999999 8.4 C 601.1999999999999 7.7 600.5999999999999 7.1000000000000005 599.9 7.1000000000000005 C 599.2 7.1 598.6 7.7 598.6 8.4 z M 605.4 14.3 C 605.4 13.4 605.9 12.700000000000001 606.9 12.700000000000001 C 607.9 12.700000000000001 608.4 13.4 608.4 14.3 L 608.4 18.9 L 610.5 18.9 L 610.5 13.899999999999999 C 610.5 12.2 609.6 10.799999999999999 607.7 10.799999999999999 C 606.9000000000001 10.799999999999999 605.9000000000001 11.2 605.4000000000001 11.999999999999998 L 605.4000000000001 10.999999999999998 L 603.3000000000001 10.999999999999998 L 603.3000000000001 18.9 L 605.4000000000001 18.9 L 605.4000000000001 14.3 z M 612.1 19.3 C 612.3000000000001 20.8 613.8000000000001 22.1 615.9 22.1 C 618.9 22.1 620 20.1 620 18 L 620 11 L 618 11 L 618 11.9 C 617.7 11.4 617 10.8 615.8 10.8 C 613.5999999999999 10.8 612.0999999999999 12.600000000000001 612.0999999999999 14.600000000000001 C 612.0999999999999 16.8 613.6999999999999 18.400000000000002 615.8 18.400000000000002 C 616.9 18.400000000000002 617.6999999999999 17.900000000000002 618 17.400000000000002 L 618 18.000000000000004 C 618 19.500000000000004 617.2 20.200000000000003 615.9 20.200000000000003 C 614.9 20.200000000000003 614.1999999999999 19.6 614.1 18.700000000000003 L 612.1 19.3 z M 616.1 16.7 C 615 16.7 614.2 15.899999999999999 614.2 14.7 C 614.2 13.5 615 12.7 616.1 12.7 C 617.1 12.7 618 13.5 618 14.7 C 618 15.899999999999999 617.2 16.7 616.1 16.7 z M 621.5 16.7 C 621.6 17.599999999999998 622.4 19.099999999999998 624.8 19.099999999999998 C 626.9 19.099999999999998 627.9 17.799999999999997 627.9 16.499999999999996 C 627.9 15.299999999999997 627.1 14.399999999999997 625.6 14.099999999999996 L 624.5 13.899999999999997 C 624.1 13.799999999999997 623.8 13.599999999999996 623.8 13.199999999999998 C 623.8 12.799999999999997 624.1999999999999 12.399999999999997 624.8 12.399999999999997 C 625.6999999999999 12.399999999999997 626 12.999999999999996 626.0999999999999 13.499999999999996 L 627.8999999999999 13.099999999999996 C 627.7999999999998 12.299999999999995 627.0999999999999 10.799999999999997 624.7999999999998 10.799999999999997 C 623.0999999999998 10.799999999999997 621.8999999999999 11.999999999999996 621.8999999999999 13.399999999999997 C 621.8999999999999 14.499999999999996 622.5999999999999 15.399999999999997 624.0999999999999 15.799999999999997 L 625.0999999999999 15.999999999999996 C 625.6999999999999 16.099999999999998 625.8999999999999 16.399999999999995 625.8999999999999 16.799999999999997 C 625.8999999999999 17.199999999999996 625.5999999999999 17.599999999999998 624.8999999999999 17.599999999999998 C 623.9999999999999 17.599999999999998 623.4999999999999 16.999999999999996 623.4999999999999 16.4 L 621.5 16.7 z" stroke-linecap="round" />
</g>
		<g transform="matrix(1 0 0 1 52 -12.2)" id="hPJy9pgfXlsgsqxAMu4vh"  >
<path style="stroke: none; stroke-width: 1; stroke-dasharray: none; stroke-linecap: butt; stroke-dashoffset: 0; stroke-linejoin: miter; stroke-miterlimit: 4; fill: rgb(255,255,255); fill-rule: nonzero; opacity: 1;" vector-effect="non-scaling-stroke"  transform=" translate(-119.5, -2.8)" d="M 119.5 0.9 C 120.6 0.9 121.4 1.8 121.4 2.8 C 121.4 3.9 120.5 4.699999999999999 119.5 4.699999999999999 C 118.4 4.699999999999999 117.6 3.7999999999999994 117.6 2.7999999999999994 C 117.6 1.7 118.4 0.9 119.5 0.9 z M 121.1 2.8 C 121.1 1.9 120.39999999999999 1.1999999999999997 119.5 1.1999999999999997 C 118.6 1.1999999999999997 117.9 1.8999999999999997 117.9 2.8 C 117.9 3.6999999999999997 118.60000000000001 4.4 119.5 4.4 C 120.4 4.4 121.1 3.7 121.1 2.8 z M 118.7 1.7 L 119.60000000000001 1.7 C 120.10000000000001 1.7 120.4 1.9 120.4 2.4 C 120.4 2.8 120.10000000000001 3 119.80000000000001 3 L 120.4 4 L 120 4 L 119.4 3 L 119 3 L 119 3.9 L 118.7 3.9 L 118.7 1.7 z M 119.4 2.7 C 119.7 2.7 120 2.7 120 2.3000000000000003 C 120 2.0000000000000004 119.8 2.0000000000000004 119.5 2.0000000000000004 L 119 2.0000000000000004 L 119 2.7 L 119.4 2.7 z" stroke-linecap="round" />
</g>
		<g transform="matrix(1 0 0 1 -24.25 -0.45)" id="T17QPe_U9sWYhc9CAQImb"  >
<path style="stroke: none; stroke-width: 1; stroke-dasharray: none; stroke-linecap: butt; stroke-dashoffset: 0; stroke-linejoin: miter; stroke-miterlimit: 4; fill: rgb(255,255,255); fill-rule: nonzero; opacity: 1;" vector-effect="non-scaling-stroke"  transform=" translate(-43.25, -14.55)" d="M 42.2 28.2 C 45 28.2 46.5 26.8 46.5 24.5 L 46.5 17 L 56.6 0.9 L 49.5 0.9 L 43.3 11.9 L 37 0.9000000000000004 L 29.9 0.9000000000000004 L 40 17 L 40 28.2 L 42.2 28.2 z" stroke-linecap="round" />
</g>
		<g transform="matrix(1 0 0 1 -52.55 -0.5009824341)" id="ibj4iuOu7-ImvJxq963th"  >
<path style="stroke: none; stroke-width: 1; stroke-dasharray: none; stroke-linecap: butt; stroke-dashoffset: 0; stroke-linejoin: miter; stroke-miterlimit: 4; fill: rgb(255,255,255); fill-rule: nonzero; opacity: 1;" vector-effect="non-scaling-stroke"  transform=" translate(-14.95, -14.4990175659)" d="M 28.3 0.9 L 20.9 0.9 L 15 9.8 L 10.6 3 C 10.6 3 10.6 3 10.5 2.9 C 8.6 0.3999999999999999 4.4 0.10000000000000009 1.6999999999999993 0.8999999999999999 L 11.399999999999999 14.200000000000001 L 0.8 28.4 L 8.3 28.4 L 15 18.7 L 20.2 26.2 C 21.9 28.4 25.6 28.8 28.299999999999997 28.3 L 29.099999999999998 28.1 L 18.599999999999998 14.100000000000001 L 28.3 0.9 z" stroke-linecap="round" />
</g>
		<g transform="matrix(1 0 0 1 54.1 -0.45)" id="S1bgBzLNbYSJQylc_3r4c"  >
<path style="stroke: none; stroke-width: 1; stroke-dasharray: none; stroke-linecap: butt; stroke-dashoffset: 0; stroke-linejoin: miter; stroke-miterlimit: 4; fill: rgb(255,255,255); fill-rule: nonzero; opacity: 1;" vector-effect="non-scaling-stroke"  transform=" translate(-121.6, -14.55)" d="M 132.5 23.5 L 127.4 23.5 L 117.2 23.5 L 117.2 5.1 L 117.2 5.1 C 117.2 2.8999999999999995 115.10000000000001 1.0999999999999996 112.4 0.8999999999999995 L 110.7 0.8999999999999995 L 110.7 28.2 C 110.7 28.2 123.60000000000001 28.2 127.6 28.2 C 130.4 28.2 131.7 26.7 132.1 25.3 C 132.2 25.1 132.5 23.5 132.5 23.5 z" stroke-linecap="round" />
</g>
		<g transform="matrix(1 0 0 1 26.75 -0.45)" id="qOKQDnDtzyHwc-0_KTbxw"  >
<path style="stroke: none; stroke-width: 1; stroke-dasharray: none; stroke-linecap: butt; stroke-dashoffset: 0; stroke-linejoin: miter; stroke-miterlimit: 4; fill: rgb(255,255,255); fill-rule: nonzero; opacity: 1;" vector-effect="non-scaling-stroke"  transform=" translate(-94.25, -14.55)" d="M 91.7 0.9 L 79.5 28.2 L 82.8 28.2 C 85.2 28.2 86.7 27.099999999999998 87.3 25.8 L 87.5 25.3 L 87.5 25.3 L 88.3 23.3 L 100.2 23.3 L 101.2 25.8 C 101.8 27 103.4 28.1 105.7 28.1 L 109 28.1 L 96.8 0.9 L 91.7 0.9 z M 90.2 18.7 L 94.4 9 L 98.4 18.8 L 90.2 18.7 z" stroke-linecap="round" />
</g>
		<g transform="matrix(1 0 0 1 0.55 -0.45)" id="OKWHOpCeZBbGe4fB5_tw-"  >
<path style="stroke: none; stroke-width: 1; stroke-dasharray: none; stroke-linecap: butt; stroke-dashoffset: 0; stroke-linejoin: miter; stroke-miterlimit: 4; fill: rgb(255,255,255); fill-rule: nonzero; opacity: 1;" vector-effect="non-scaling-stroke"  transform=" translate(-68.05, -14.55)" d="M 81.4 0.9 C 81.4 0.9 79.10000000000001 0.9 78.4 0.9 C 74.7 0.9 64.9 0.9 62.300000000000004 0.9 C 59.400000000000006 0.9 58.900000000000006 2.1 58.50000000000001 2.8 C 58.1 3.5 57 5.8 57 5.8 L 70.8 5.8 C 70.7 5.8 54.699999999999996 28.2 54.699999999999996 28.2 C 57.4 28.2 70.39999999999999 28.2 73.39999999999999 28.2 C 76.1 28.2 76.89999999999999 26.8 77.19999999999999 26.4 C 77.49999999999999 26 78.69999999999999 23.299999999999997 78.69999999999999 23.299999999999997 L 65.6 23.299999999999997 L 81.4 0.9 z" stroke-linecap="round" />
</g>
</g>
</g>
</svg>