<svg width="483" height="341" viewBox="0 0 483 341" fill="none" xmlns="http://www.w3.org/2000/svg">
<g clip-path="url(#clip0_1_79)">
<path d="M365.974 169.7C365.979 178.245 364.984 186.761 363.01 195.075C351.569 243.147 308.355 278.902 256.794 278.902C196.498 278.902 147.614 230.008 147.614 169.7C147.608 149.809 153.035 130.294 163.309 113.263C173.582 96.2316 188.312 82.3308 205.908 73.0613C205.914 73.0613 205.92 73.0556 205.925 73.0556C208.884 71.4878 211.924 70.0591 215.047 68.7695C232.319 61.6553 251.121 59.0667 269.672 61.2486C271.263 61.4367 272.848 61.6597 274.415 61.9123C276.969 62.3291 279.489 62.832 281.976 63.421C282.604 63.5618 283.226 63.7144 283.842 63.8789C283.966 63.9084 284.083 63.9436 284.206 63.9729C284.33 64.0021 284.447 64.0317 284.564 64.0669H284.57C284.805 64.1257 285.04 64.1842 285.275 64.249C285.85 64.4075 286.425 64.566 287 64.736C288.779 65.2411 290.538 65.795 292.278 66.3976C292.553 66.4916 292.823 66.5856 293.099 66.6794C293.24 66.7324 293.375 66.7795 293.516 66.8322C293.663 66.8792 293.804 66.932 293.95 66.9847C297.857 68.3973 301.679 70.0342 305.397 71.8871L299.673 70.0435C317.982 79.4316 333.831 96.0057 347.055 119.555C347.154 118.968 347.429 118.424 347.843 117.997C348.257 117.57 348.791 117.278 349.375 117.161C349.958 117.044 350.564 117.107 351.111 117.341C351.658 117.576 352.121 117.971 352.438 118.474C352.517 118.6 352.586 118.731 352.644 118.868C352.797 119.222 352.88 119.602 352.886 119.988C352.893 120.374 352.823 120.757 352.681 121.116C352.539 121.475 352.328 121.802 352.06 122.079C351.792 122.356 351.471 122.578 351.117 122.731C351.097 122.741 351.075 122.749 351.053 122.754L360.456 147.208C361.129 147.184 361.799 147.31 362.417 147.577C362.571 146.762 362.842 145.973 363.221 145.235C363.409 146.045 363.585 146.861 363.755 147.683C363.814 147.988 363.879 148.288 363.931 148.593V148.599C364.254 150.214 364.536 151.844 364.777 153.49C364.8 153.625 364.818 153.754 364.841 153.889V153.895C364.935 154.541 365.023 155.192 365.105 155.844C365.54 159.29 365.812 162.786 365.921 166.33C365.956 167.451 365.974 168.573 365.974 169.7Z" fill="#89B9F5"/>
<path d="M360.523 152.48C361.475 176.856 362.429 201.272 361.329 225.66C360.237 249.88 356.792 273.926 353.774 297.959L348.646 338.798H350.407C350.412 334.76 346.562 331.205 342.499 331.83C338.615 332.427 335.989 336.579 336.846 340.345L338.455 339.667C335.779 334.268 331.658 327.288 324.557 328.134C321.219 328.532 319.069 331.049 316.634 333.08C314.011 335.193 310.865 336.556 307.531 337.026C304.196 337.495 300.797 337.053 297.693 335.747C296.664 335.299 295.766 336.816 296.804 337.267C299.552 338.45 302.524 339.021 305.514 338.94C308.505 338.859 311.442 338.127 314.121 336.797C315.466 336.122 316.727 335.293 317.879 334.325C319.098 333.308 320.195 332.133 321.498 331.218C324.332 329.227 327.659 329.611 330.447 331.505C333.575 333.63 335.306 337.27 336.935 340.556C337.394 341.482 338.757 340.815 338.544 339.877C338.278 338.488 338.566 337.05 339.347 335.871C340.127 334.691 341.339 333.865 342.722 333.568C345.752 333.054 348.65 335.825 348.646 338.798C348.644 339.964 350.27 339.89 350.407 338.798C353.45 314.567 356.605 290.346 359.508 266.097C360.94 254.142 362.194 242.16 362.865 230.135C363.544 217.956 363.678 205.753 363.525 193.559C363.353 179.86 362.819 166.169 362.284 152.48C362.24 151.35 360.479 151.345 360.523 152.48Z" fill="#CCCCCC"/>
<path d="M442.811 175.706C432.459 183.23 421.669 190.131 410.497 196.372C407.445 198.051 404.451 199.595 401.634 200.905C397.267 202.936 393.316 204.41 390.228 204.956L390.223 204.962C389.771 205.044 389.33 205.102 388.914 205.144C385.08 205.514 381.94 203.212 379.381 199.431C375.812 194.171 373.364 186.045 371.715 178.248C371.386 176.71 371.092 175.189 370.829 173.704C369.596 166.84 368.98 160.77 368.727 157.905C367.564 157.569 366.481 157 365.546 156.232V156.225C365.392 156.106 365.245 155.979 365.105 155.844C364.786 155.546 364.489 155.224 364.219 154.881C362.941 153.297 362.247 151.321 362.253 149.286C362.252 147.878 362.584 146.49 363.221 145.235V145.229C363.775 144.133 364.549 143.162 365.493 142.377C366.437 141.591 367.533 141.008 368.712 140.663C369.89 140.318 371.127 140.219 372.346 140.371C373.565 140.524 374.739 140.925 375.797 141.55C376.854 142.174 377.772 143.009 378.494 144.003C379.216 144.997 379.726 146.128 379.994 147.327C380.261 148.526 380.279 149.767 380.048 150.974C379.816 152.18 379.339 153.326 378.647 154.341L381.811 162.067L381.817 162.073L391.197 184.959V184.965L391.297 185.205L425.947 164.486L430.784 161.592L431.717 161.034C433.575 159.602 435.909 158.934 438.243 159.167C440.577 159.399 442.734 160.515 444.273 162.285H444.279C445.106 163.244 445.726 164.363 446.102 165.572C446.478 166.782 446.601 168.056 446.463 169.315C446.326 170.574 445.93 171.791 445.302 172.89C444.674 173.99 443.826 174.948 442.811 175.706Z" fill="#FFB6B6"/>
<path d="M362.382 153.079L361.284 153.49C360.527 151.458 359.756 149.46 358.971 147.495C342.688 106.697 320.899 80.2417 294.091 68.7111C293.686 68.5348 293.281 68.3645 292.87 68.2002C292.325 67.9711 291.773 67.7481 291.221 67.5426C290.329 67.1902 289.425 66.8614 288.521 66.5503C287.312 66.1335 286.101 65.7479 284.887 65.3936C284.594 65.3056 284.294 65.2176 284.001 65.1413C282.95 64.8418 281.906 64.566 280.855 64.3252C255.772 58.319 230.086 64.5777 205.925 73.0556C205.92 73.0556 205.914 73.0613 205.908 73.0613C198.529 75.6506 191.286 78.4511 184.254 81.1693C158.25 91.2207 135.387 100.057 119.45 92.4185C118.84 92.1307 118.241 91.8136 117.654 91.473C117.02 91.1032 116.392 90.7042 115.781 90.2813C115.705 90.2286 115.629 90.1755 115.558 90.1171C114.901 89.6472 114.255 89.1424 113.627 88.6023C112.694 87.7986 111.817 86.9316 111.003 86.0073C110.845 85.831 110.686 85.655 110.534 85.4729C110.504 85.4316 110.469 85.3906 110.44 85.3554C109.237 83.9029 108.183 82.3334 107.293 80.6702C101.788 70.4546 102.046 56.951 102.298 43.7998C102.568 29.5681 102.832 16.0353 95.6359 8.16208C94.6058 7.02635 93.4338 6.02788 92.1489 5.19126C90.8668 4.3504 89.4896 3.66457 88.046 3.14811C72.567 -2.4647 45.953 8.57889 8.77888 36.0558C7.54615 36.9657 6.30766 37.8934 5.05144 38.8386L4.34119 37.8992C5.59743 36.954 6.84191 36.0206 8.07465 35.1104C25.6548 22.1237 41.0163 12.7064 53.8011 7.07585C68.4171 0.635405 80.0807 -1.03189 88.5685 2.09143C90.0536 2.63162 91.4716 3.34083 92.7947 4.20509C94.1177 5.06988 95.3318 6.09092 96.4107 7.24614C104.018 15.4187 103.748 29.2628 103.472 43.8173C103.237 56.1879 102.991 68.8752 107.61 78.6741C108.633 80.8723 109.94 82.927 111.496 84.786C111.59 84.8975 111.69 85.009 111.784 85.1206C112.594 86.0449 113.466 86.912 114.396 87.7155C114.942 88.1911 115.505 88.6315 116.081 89.0483C116.751 89.537 117.446 89.9897 118.165 90.4045C118.969 90.8748 119.8 91.2983 120.653 91.6728C136.144 98.5068 158.479 89.8702 183.831 80.0713C193.88 76.1846 204.341 72.1453 215.047 68.7694C232.839 63.1566 251.312 59.3817 269.672 61.2485C271.14 61.3896 272.613 61.5773 274.081 61.8064C276.728 62.2057 279.37 62.7281 282.005 63.3917C282.622 63.5442 283.232 63.7085 283.843 63.8788C284.083 63.9375 284.318 64.0081 284.559 64.0786C284.794 64.1431 285.034 64.2076 285.269 64.2781C286.478 64.6362 287.693 65.0237 288.902 65.4406C289.93 65.7986 290.957 66.1745 291.972 66.5678C292.342 66.7146 292.718 66.8614 293.093 67.0199C293.428 67.1549 293.769 67.2959 294.103 67.4367C295.981 68.2354 297.842 69.0983 299.674 70.0434C317.982 79.4315 333.831 96.0056 347.055 119.555C347.642 120.6 348.229 121.662 348.805 122.743C350.161 125.261 351.485 127.856 352.779 130.528C355.344 135.8 357.792 141.366 360.122 147.225C360.656 148.552 361.18 149.897 361.695 151.259C361.924 151.863 362.153 152.468 362.382 153.079Z" fill="#CCCCCC"/>
<path d="M4.69714 43.065C7.29063 43.065 9.39306 40.9622 9.39306 38.3682C9.39306 35.7741 7.29063 33.6713 4.69714 33.6713C2.10366 33.6713 0.0012207 35.7741 0.0012207 38.3682C0.0012207 40.9622 2.10366 43.065 4.69714 43.065Z" fill="#D0E157"/>
<path d="M92.4715 9.39499C95.065 9.39499 97.1674 7.29212 97.1674 4.69811C97.1674 2.10409 95.065 0.0012207 92.4715 0.0012207C89.878 0.0012207 87.7756 2.10409 87.7756 4.69811C87.7756 7.29212 89.878 9.39499 92.4715 9.39499Z" fill="#D0E157"/>
<path d="M90.7987 67.262L90.0032 68.1256L139.098 113.363L139.893 112.499L90.7987 67.262Z" fill="#3F3D56"/>
<path d="M90.4001 70.6286C92.021 70.6286 93.3351 69.3143 93.3351 67.693C93.3351 66.0717 92.021 64.7574 90.4001 64.7574C88.7792 64.7574 87.4651 66.0717 87.4651 67.693C87.4651 69.3143 88.7792 70.6286 90.4001 70.6286Z" fill="#D0E157"/>
<path d="M138.78 34.4413L130.867 40.465L120.037 48.7141C114.422 52.9717 110.677 59.2411 109.588 66.2038L107.61 78.6742L107.293 80.6703L107.047 82.2321L106.83 83.6294L106.178 87.7216C106.131 88.0062 106.177 88.2983 106.309 88.5549C106.44 88.8116 106.651 89.0192 106.909 89.1472C107.167 89.2752 107.46 89.3169 107.744 89.266C108.028 89.2152 108.288 89.0746 108.486 88.8649C108.426 87.6486 108.844 86.457 109.648 85.5433C110.453 84.6296 111.583 84.0657 112.796 83.9713C113.105 74.7877 118.087 70.6825 125.637 69.3684L125.713 69.2804L125.66 69.3862C126.868 79.4849 123.826 84.7084 117.49 86.1541L117.331 86.4792C117.383 86.5772 117.435 86.6747 117.48 86.7779C117.757 87.4128 117.89 88.1013 117.869 88.7937C117.848 89.4862 117.674 90.1655 117.36 90.7828C117.045 91.4 116.598 91.9399 116.05 92.3636C115.502 92.7873 114.867 93.0843 114.191 93.2332C114.188 93.3563 114.201 93.4792 114.232 93.5985C114.288 93.8013 114.39 93.9884 114.531 94.145C114.672 94.3015 114.847 94.4233 115.042 94.5007C115.238 94.5781 115.449 94.6091 115.659 94.5911C115.868 94.5731 116.071 94.5067 116.251 94.3971L117.607 93.5575L118.646 92.9173L119.45 92.4185L120.653 91.6729L135.017 82.7897C140.902 79.1621 145.14 73.3828 146.833 66.6794L150.237 53.2874L152.691 43.647L138.78 34.4413Z" fill="#E6E6E6"/>
<path d="M138.723 115.561C140.344 115.561 141.658 114.246 141.658 112.625C141.658 111.004 140.344 109.69 138.723 109.69C137.102 109.69 135.788 111.004 135.788 112.625C135.788 114.246 137.102 115.561 138.723 115.561Z" fill="#D0E157"/>
<path d="M391.872 194L391.197 184.965V184.959L390.857 180.42C390.345 173.393 387.13 166.838 381.887 162.132L381.817 162.073L381.811 162.067L365.704 147.548C365.489 147.347 365.213 147.224 364.919 147.197C364.626 147.171 364.332 147.243 364.084 147.401C363.959 147.476 363.848 147.571 363.755 147.683C363.645 147.815 363.562 147.967 363.511 148.132C364.514 148.783 365.23 149.794 365.512 150.956C365.794 152.119 365.621 153.346 365.028 154.384L365.546 156.226V156.232C370.919 160.245 372.23 166.29 370.482 173.862L370.518 173.98L370.459 173.88C363.555 169.773 359.427 164.365 360.128 156.69C359.508 156.58 358.916 156.347 358.389 156.004C357.861 155.661 357.407 155.214 357.056 154.692C356.704 154.17 356.461 153.582 356.341 152.964C356.222 152.345 356.228 151.709 356.36 151.093C356.236 151.055 356.107 151.035 355.978 151.036C355.859 151.034 355.74 151.05 355.626 151.083C355.341 151.153 355.087 151.317 354.906 151.548C354.724 151.778 354.624 152.063 354.622 152.357L354.129 174.42C353.96 181.331 356.493 188.036 361.19 193.108L363.01 195.075L370.564 203.259L377.309 210.569L390.223 204.962L390.228 204.956L392.612 203.923L391.872 194Z" fill="#CCCCCC"/>
<path d="M113.12 91.7264C114.989 91.7264 116.503 90.2115 116.503 88.3428C116.503 86.4741 114.989 84.9592 113.12 84.9592C111.252 84.9592 109.737 86.4741 109.737 88.3428C109.737 90.2115 111.252 91.7264 113.12 91.7264Z" fill="#D0E157"/>
<path d="M126.701 69.6271C127.998 69.6271 129.049 68.5756 129.049 67.2786C129.049 65.9816 127.998 64.9302 126.701 64.9302C125.405 64.9302 124.353 65.9816 124.353 67.2786C124.353 68.5756 125.405 69.6271 126.701 69.6271Z" fill="#3F3D56"/>
<path d="M361.977 151.153L361.695 151.258L360.879 151.576L359.271 147.395L352.79 130.551L352.779 130.528L349.879 122.977H349.873L348.946 120.558L350.043 120.136L351.053 122.754L360.457 147.207L361.977 151.153Z" fill="#3F3D56"/>
<path d="M351.117 122.731C351.097 122.741 351.075 122.749 351.053 122.754C350.681 122.908 350.281 122.984 349.879 122.977H349.873C349.505 122.965 349.143 122.886 348.805 122.743C348.113 122.448 347.561 121.9 347.261 121.21C347.032 120.69 346.96 120.115 347.055 119.555C347.154 118.968 347.429 118.424 347.843 117.997C348.257 117.569 348.791 117.278 349.375 117.161C349.958 117.044 350.564 117.107 351.111 117.341C351.658 117.576 352.121 117.971 352.438 118.474C352.517 118.6 352.586 118.731 352.644 118.868C352.797 119.222 352.88 119.602 352.886 119.988C352.893 120.374 352.823 120.757 352.681 121.116C352.539 121.475 352.328 121.802 352.06 122.079C351.792 122.356 351.471 122.578 351.117 122.731Z" fill="#D0E157"/>
<path d="M364.478 153.384C364.473 153.402 364.465 153.419 364.455 153.434V153.439C364.329 153.712 364.168 153.968 363.975 154.199C363.612 154.643 363.148 154.994 362.622 155.222C362.039 155.476 361.399 155.573 360.767 155.503V155.498C360.136 155.426 359.535 155.189 359.025 154.811C358.515 154.433 358.113 153.927 357.861 153.344C357.569 152.681 357.485 151.945 357.621 151.234C357.729 150.653 357.978 150.106 358.347 149.644C358.715 149.181 359.192 148.816 359.735 148.582C359.798 148.554 359.866 148.527 359.929 148.505C360.006 148.477 360.083 148.45 360.16 148.427C360.375 148.364 360.594 148.32 360.817 148.296C360.902 148.287 360.988 148.283 361.074 148.283C361.593 148.265 362.11 148.362 362.586 148.568C362.88 148.691 363.157 148.853 363.41 149.048V149.052C363.532 149.143 363.647 149.243 363.754 149.351V149.356C364.068 149.675 364.321 150.05 364.5 150.46C364.702 150.922 364.804 151.421 364.8 151.925C364.796 152.428 364.686 152.926 364.478 153.384Z" fill="#D0E157"/>
<path d="M371.659 178.247C372.956 178.247 374.007 177.195 374.007 175.898C374.007 174.601 372.956 173.55 371.659 173.55C370.362 173.55 369.311 174.601 369.311 175.898C369.311 177.195 370.362 178.247 371.659 178.247Z" fill="#3F3D56"/>
<path d="M324.556 76.8246L324.198 77.9401L321.21 76.9772L305.397 71.887L299.674 70.0434L294.103 68.2528L292.959 67.8829L291.344 67.3603L284.923 65.2937L284.048 65.0178L281.154 64.0843L274.416 61.912L274.081 61.8063L222.437 45.1793L219.28 44.1636L219.638 43.0481L222.625 44.011L282.24 63.2036L284.629 63.9727L285.298 64.1841L287.001 64.736L292.231 66.4151L293.099 66.6969L293.933 66.967L321.398 75.8089L324.556 76.8246Z" fill="#3F3D56"/>
<path d="M294.103 67.4367C294.081 67.2778 294.029 67.1245 293.95 66.9847L293.933 66.9672C293.768 66.6828 293.501 66.4711 293.187 66.3741C293.154 66.3608 293.118 66.3529 293.082 66.3506H293.08C293.138 66.9862 293.066 67.6271 292.868 68.2338C292.67 68.8405 292.35 69.4004 291.927 69.8789C291.505 70.3575 290.989 70.7447 290.412 71.0167C289.835 71.2888 289.208 71.44 288.57 71.4611L288.568 71.4646C288.881 80.1422 286.045 86.4932 277.145 88.3672L277.074 88.4673L277.11 88.3558C272.233 80.0462 277.311 73.9541 283.934 68.2062C283.645 67.3025 283.636 66.3323 283.909 65.4235C284.182 64.5147 284.724 63.7098 285.463 63.1149L285.462 63.11C285.387 62.7799 285.19 62.4905 284.911 62.2996C284.673 62.1273 284.385 62.039 284.092 62.0486C283.798 62.0582 283.517 62.1651 283.291 62.3526L282.24 63.2037L282.005 63.3918L281.976 63.421L281.154 64.0844L280.855 64.3252L266.139 76.2434C260.761 80.5832 257.286 86.849 256.453 93.71L254.769 107.431L253.554 117.306L268.516 124.68L275.607 117.699L285.304 108.147C290.337 103.215 293.262 96.522 293.463 89.4769L294.091 68.711L294.103 68.2529L294.121 67.701C294.121 67.6126 294.115 67.5243 294.103 67.4367Z" fill="#CCCCCC"/>
<path d="M219.693 47.0792C221.314 47.0792 222.628 45.7649 222.628 44.1437C222.628 42.5224 221.314 41.2081 219.693 41.2081C218.072 41.2081 216.758 42.5224 216.758 44.1437C216.758 45.7649 218.072 47.0792 219.693 47.0792Z" fill="#D0E157"/>
<path d="M324.142 79.7786C325.763 79.7786 327.077 78.4644 327.077 76.8431C327.077 75.2218 325.763 73.9075 324.142 73.9075C322.522 73.9075 321.207 75.2218 321.207 76.8431C321.207 78.4644 322.522 79.7786 324.142 79.7786Z" fill="#D0E157"/>
<path d="M276.347 92.9241C277.644 92.9241 278.695 91.8726 278.695 90.5756C278.695 89.2786 277.644 88.2272 276.347 88.2272C275.051 88.2272 273.999 89.2786 273.999 90.5756C273.999 91.8726 275.051 92.9241 276.347 92.9241Z" fill="#3F3D56"/>
<path d="M474.515 102.487C474.25 102.194 473.986 101.912 473.716 101.63C467.077 94.6494 458.402 90.5104 450.301 90.5104C448.798 90.5104 447.36 90.5788 445.987 90.7156C440.299 91.2735 435.75 92.9879 432.339 95.8589C427.303 100.098 424.779 106.828 424.767 116.05C424.767 116.561 424.738 117.511 424.691 118.774C424.391 126.13 423.3 144.055 422.319 146.708C420.729 151.03 419.349 154.764 421.404 157.588C422.601 159.238 424.955 160.435 428.63 161.21C429.305 161.357 430.021 161.486 430.784 161.592C434.728 162.115 438.704 162.35 442.682 162.296C443.204 162.296 443.727 162.296 444.273 162.285H444.279C446.163 162.273 448.176 162.22 450.313 162.138C455.308 161.944 461.571 161.551 467.195 160.253H467.201C467.934 160.089 468.656 159.901 469.361 159.701L469.49 159.666L469.549 159.549C470.554 157.501 471.128 155.269 471.233 152.991C472.309 154.442 473.101 156.083 473.569 157.828L473.658 158.163L473.975 158.016C476.456 156.949 478.608 155.238 480.208 153.061C481.739 150.791 482.657 148.164 482.873 145.434C483.677 138.025 480.631 109.31 474.515 102.487Z" fill="#2F2E41"/>
<path d="M476.491 340.911H441.313L435.414 311.738L433.5 340.911H400.822C400.806 319.29 394.198 295.209 404.093 275.348C404.608 274.315 411.419 272.917 404.397 272.319L404.802 270.939L405.442 268.732L405.847 267.346C405.847 267.346 407.43 266.023 406.363 265.574C405.296 265.126 406.906 263.708 406.906 263.708L412.609 244.12L413.143 242.277H453.863C456.206 244.478 458.367 246.866 460.326 249.416C460.989 250.261 461.681 251.177 462.392 252.164C462.885 252.862 463.396 253.596 463.906 254.365C468.443 261.121 471.835 268.58 473.944 276.441V276.447C474.302 277.791 474.619 279.167 474.895 280.574V280.58C475.141 281.83 475.358 283.099 475.529 284.396C475.658 285.341 475.769 286.298 475.851 287.267C476.341 292.634 476.169 298.041 475.341 303.366L476.491 340.911Z" fill="#2F2E41"/>
<path d="M436.741 146.466L456.121 145.468L465.123 159.694C465.123 159.694 482.059 162.526 480.885 182.488C479.711 202.45 460.279 219.966 460.279 219.966L475.197 263.24L473.754 267.363L473.939 269.678L475.908 272.13L476.11 274.666L474.366 278.678L476.738 282.519C459.666 286.781 448.146 282.444 442.032 269.731C435.025 252.238 423.223 250.57 408.818 257.493L410.971 238.167L413.631 234.6L412.145 229.947L414.379 225.472L415.543 211.258C415.543 211.258 402.803 192.114 417.428 177.695L423.298 167.714L429.866 159.699L436.741 146.466Z" fill="#D0E157"/>
<path d="M446.376 142.449C457.717 142.449 466.911 133.253 466.911 121.91C466.911 110.566 457.717 101.37 446.376 101.37C435.034 101.37 425.84 110.566 425.84 121.91C425.84 133.253 435.034 142.449 446.376 142.449Z" fill="#FFB6B6"/>
<path d="M459.869 96.3815H439.765C437.333 95.8155 434.826 95.6391 432.339 95.8589C429.283 96.092 426.363 97.2213 423.945 99.1055C420.347 101.994 418.363 106.597 418.363 112.069C418.373 113.818 418.554 115.563 418.903 117.277L418.938 117.459L419.114 117.506C420.969 117.981 422.828 118.404 424.691 118.774C425.137 118.862 425.589 118.95 426.041 119.032C428.483 119.484 430.924 119.842 433.349 120.101L433.484 120.118L433.584 120.03C435.316 118.437 436.691 116.494 437.616 114.329C438.161 116.23 438.307 118.223 438.045 120.183L438.004 120.5L438.321 120.517C440.087 120.617 441.856 120.666 443.627 120.664C451.34 120.659 459.025 119.722 466.514 117.875C467.007 117.758 467.494 117.635 467.981 117.506L468.204 117.447V104.718C468.202 102.508 467.323 100.389 465.76 98.826C464.198 97.2631 462.079 96.384 459.869 96.3815Z" fill="#2F2E41"/>
<path d="M476.246 94.6403C475.857 98.4693 474.035 102.01 471.146 104.552C468.257 107.095 464.515 108.451 460.668 108.35C456.821 108.249 453.155 106.698 450.403 104.008C447.652 101.317 446.018 97.6859 445.83 93.8417C445.642 89.9976 446.914 86.2243 449.39 83.2781C451.866 80.3319 455.363 78.4303 459.182 77.9543C463 77.4784 466.857 78.4633 469.98 80.7116C473.104 82.96 475.262 86.3057 476.023 90.0785C473.694 90.4067 471.48 91.2973 469.572 92.6735C470.736 92.5296 471.918 92.6213 473.046 92.9431C474.175 93.2648 475.227 93.81 476.14 94.5464C476.176 94.5757 476.211 94.6051 476.246 94.6403Z" fill="#2F2E41"/>
<path d="M154.964 55.4948C153.701 55.4941 152.467 55.1201 151.416 54.4197C140.15 53.5222 132.772 48.6988 129.388 39.84C128.652 39.3513 128.024 38.7174 127.542 37.9771C127.06 37.2369 126.735 36.406 126.585 35.5353C126.434 34.6628 126.465 33.7685 126.677 32.9087C126.888 32.0489 127.276 31.2422 127.815 30.5397C128.848 29.232 130.339 28.3649 131.986 28.1135C133.633 27.862 135.314 28.2449 136.691 29.1849L137.879 29.9715C137.882 28.7197 138.254 27.4966 138.948 26.4546L139.032 26.3302C139.438 25.7201 140.029 25.2563 140.719 25.0071C141.408 24.7579 142.159 24.7363 142.861 24.9455C143.612 25.1532 144.277 25.593 144.763 26.2019C145.249 26.8108 145.53 27.5577 145.565 28.3358C145.583 28.636 145.62 28.9347 145.676 29.2302C145.881 30.2818 146.333 31.2696 146.995 32.1117C147.657 32.9538 148.51 33.6262 149.484 34.0731C150.457 34.52 151.523 34.7286 152.593 34.6817C153.664 34.6347 154.707 34.3336 155.638 33.8032C156.198 33.4835 156.83 33.3126 157.475 33.3068C158.12 33.301 158.755 33.4604 159.321 33.77C159.834 34.0462 160.266 34.4531 160.572 34.9495C160.878 35.4459 161.047 36.0142 161.063 36.5972C161.11 37.8941 160.764 39.175 160.071 40.272C159.378 41.369 158.369 42.2311 157.178 42.7452L158.372 43.5359C159.814 44.4679 160.835 45.9255 161.219 47.5989C161.604 49.2723 161.32 51.0296 160.429 52.4973C159.971 53.2235 159.372 53.8502 158.667 54.3403C157.962 54.8304 157.165 55.1738 156.325 55.3503C155.878 55.4462 155.422 55.4946 154.964 55.4948Z" fill="#3F3D56"/>
<path d="M265.823 135.225C265.477 135.225 265.133 135.173 264.802 135.071C264.142 134.872 263.555 134.485 263.111 133.958C262.667 133.431 262.387 132.786 262.303 132.102L262.292 132.023C262.12 130.87 261.652 129.782 260.935 128.864C260.218 127.947 259.275 127.23 258.199 126.784C257.123 126.339 255.95 126.179 254.793 126.321C253.637 126.464 252.538 126.903 251.602 127.596C251.124 127.94 250.567 128.158 249.982 128.228C249.398 128.298 248.805 128.219 248.259 127.997C247.714 127.776 247.233 127.42 246.863 126.962C246.493 126.504 246.245 125.96 246.142 125.38C245.926 124.096 246.105 122.777 246.653 121.596C247.202 120.415 248.095 119.428 249.215 118.765L247.747 118.042C246.956 117.65 246.253 117.101 245.681 116.428C245.11 115.754 244.682 114.971 244.424 114.127C244.163 113.28 244.081 112.389 244.183 111.509C244.284 110.629 244.566 109.78 245.012 109.015C245.872 107.587 247.241 106.538 248.843 106.08C250.445 105.623 252.162 105.79 253.645 106.549C263.85 105.132 271.646 109.08 277.15 118.134C277.941 118.526 278.645 119.075 279.216 119.748C279.788 120.422 280.216 121.205 280.474 122.049C280.734 122.896 280.816 123.787 280.715 124.667C280.614 125.546 280.331 126.396 279.885 127.161C279.026 128.589 277.657 129.637 276.055 130.095C274.452 130.553 272.736 130.385 271.252 129.627L269.974 128.997C270.129 130.239 269.915 131.499 269.358 132.62C269.104 133.138 268.781 133.619 268.399 134.051C268.078 134.418 267.682 134.714 267.238 134.916C266.794 135.119 266.311 135.224 265.823 135.225Z" fill="#3F3D56"/>
<path d="M380.085 221.122C379.244 221.132 378.418 220.895 377.71 220.441C377.002 219.986 376.442 219.334 376.101 218.565L376.062 218.476C375.559 217.33 375.405 216.06 375.62 214.826L374.119 215.479C373.332 215.821 372.485 216.002 371.626 216.013C370.768 216.024 369.917 215.863 369.122 215.541C368.326 215.219 367.603 214.741 366.994 214.136C366.386 213.531 365.904 212.811 365.577 212.018C364.955 210.417 364.981 208.638 365.65 207.057C366.319 205.476 367.578 204.218 369.16 203.55C373.364 193.84 381.071 189.984 393.005 193.187C394.523 192.501 396.245 192.416 397.823 192.95C399.402 193.484 400.719 194.597 401.51 196.064C401.918 196.849 402.16 197.711 402.219 198.594C402.278 199.478 402.153 200.364 401.852 201.197C401.554 202.028 401.089 202.79 400.486 203.435C399.883 204.08 399.154 204.595 398.345 204.949L396.844 205.601C397.892 206.286 398.715 207.264 399.21 208.414C399.282 208.579 399.347 208.746 399.404 208.914C399.678 209.713 399.71 210.576 399.496 211.394C399.282 212.211 398.831 212.947 398.2 213.509C397.56 214.109 396.757 214.507 395.892 214.652C395.027 214.797 394.139 214.683 393.338 214.325C392.494 213.951 391.582 213.757 390.659 213.753H390.626C389.384 213.782 388.174 214.147 387.123 214.808C386.072 215.469 385.219 216.402 384.655 217.509C384.522 217.755 384.403 218.008 384.301 218.268C383.981 219.099 383.419 219.815 382.689 220.323C381.958 220.832 381.092 221.11 380.202 221.121C380.163 221.122 380.124 221.122 380.085 221.122Z" fill="#3F3D56"/>
<path d="M468.304 173.713C466.899 173.306 465.418 173.24 463.983 173.521C462.548 173.801 461.2 174.42 460.052 175.326C458.903 176.231 457.988 177.398 457.38 178.728C456.773 180.059 456.492 181.515 456.56 182.976L433.879 228.879L401.339 221.571C400.666 219.797 399.448 218.282 397.861 217.243C396.274 216.204 394.399 215.694 392.504 215.787C390.61 215.88 388.793 216.57 387.315 217.76C385.837 218.949 384.774 220.576 384.277 222.407C383.781 224.238 383.877 226.18 384.552 227.953C385.227 229.726 386.446 231.24 388.034 232.277C389.623 233.314 391.499 233.822 393.393 233.727C395.288 233.632 397.103 232.939 398.58 231.748C406.321 236.207 441.408 255.44 448.854 242.255C455.113 231.172 475.297 194.455 474.938 182.282C474.882 180.335 474.209 178.457 473.017 176.917C471.824 175.377 470.174 174.255 468.304 173.713Z" fill="#FFB6B6"/>
<path d="M288.142 69.6167C289.956 69.6167 291.426 68.1461 291.426 66.3319C291.426 64.5178 289.956 63.0471 288.142 63.0471C286.328 63.0471 284.858 64.5178 284.858 66.3319C284.858 68.1461 286.328 69.6167 288.142 69.6167Z" fill="#D0E157"/>
</g>
<defs>
<clipPath id="clip0_1_79">
<rect width="483" height="341" fill="white"/>
</clipPath>
</defs>
</svg>
